<svg preserveAspectRatio="xMidYMax meet" width="100%" height="100%" overflow="visible" style="display: block;" viewBox="0 0 72.0065 91.6793" fill="none" xmlns="http://www.w3.org/2000/svg">
<g id="User 01a">
<path id="Combined Shape" d="M61.4312 41.9236C64.2439 32.5824 65.9775 16.6124 54.1499 5.6904C45.1106 -2.65677 20.6905 -3.49794 12.1956 14.7054C10.7775 17.7441 12.7157 22.5068 16.5297 22.3334C18.0286 22.2641 18.9568 27.0143 19.8237 29.9615C18.6101 41.9236 7.79837 42.1445 2.31381 51.2853C-4.44742 62.5541 3.87409 79.1971 23.811 79.1971C43.748 79.1971 55.1769 62.6945 61.4312 41.9236Z" fill="var(--fill-0, #2C3445)"/>
<path id="Rectangle" d="M68.1924 69.1419C70.735 73.9961 72.0065 91.6793 72.0065 91.6793H0.580161C0.580161 91.6793 1.85162 73.9961 4.39419 69.1419C8.20821 61.8606 36.2933 52.4989 36.2933 52.4989C36.2933 52.4989 64.3784 61.8606 68.1924 69.1419Z" fill="var(--fill-0, #15CF78)"/>
<path id="Mask" d="M44.6148 56.6596C44.6148 56.6596 40.1885 59.0868 36.1165 59.0868C32.0445 59.0868 27.9718 56.6596 27.9718 56.6596V49.0316C27.0958 49.1701 26.2084 49.2228 25.3221 49.189C17.0048 49.1883 13.8686 37.0732 15.4895 22.3334C16.5297 22.3334 18.9568 22.3334 22.4241 17.4792C21.5573 24.2404 31.6125 23.2002 35.4265 17.8259C33.5195 24.2404 38.5471 28.5746 42.8812 25.9741C51.3799 20.8747 53.2904 36.4197 44.6148 36.5493V56.6596Z" fill="url(#paint0_linear_0_16)"/>
<path id="Path 2" d="M27.9718 49.0316C32.2729 48.2397 36.3885 46.6523 40.1074 44.3508C40.1074 44.3508 35.7732 51.8054 27.9718 51.8054V49.0316Z" fill="var(--fill-0, #FFB597)"/>
<path id="Combined Shape_2" d="M36.3047 58.7314C38.8105 58.618 44.6148 57.3906 44.6148 54.7388V52.4989C45.2507 52.4989 47.0714 54.0009 48.0079 55.2727C51.7096 60.3003 47.6036 64.8078 44.2549 64.8078C40.0296 64.8078 37.2295 61.2774 36.2933 59.5791C35.3571 61.2781 32.5569 64.8078 28.3317 64.8078C24.983 64.8078 20.877 60.3003 24.5787 55.2727C25.5152 54.0009 27.3359 52.4989 27.9718 52.4989V54.7388C27.9718 57.3906 33.9328 58.618 36.3047 58.7314Z" fill="var(--fill-0, white)"/>
</g>
<defs>
<linearGradient id="paint0_linear_0_16" x1="32.6688" y1="17.4792" x2="32.6688" y2="59.0868" gradientUnits="userSpaceOnUse">
<stop stop-color="#FFD4B3"/>
<stop offset="1" stop-color="#FFDCC2"/>
</linearGradient>
</defs>
</svg>
