<svg preserveAspectRatio="xMidYMax meet" width="100%" height="100%" overflow="visible" style="display: block;" viewBox="0 0 71.4263 90.3809" fill="none" xmlns="http://www.w3.org/2000/svg">
<g id="User 04b">
<path id="Rectangle" d="M67.6123 67.8435C70.1548 72.6977 71.4263 90.3809 71.4263 90.3809H0C0 90.3809 1.27146 72.6977 3.81403 67.8435C7.62805 60.5622 35.7132 51.2005 35.7132 51.2005C35.7132 51.2005 63.7983 60.5622 67.6123 67.8435Z" fill="var(--fill-0, #15CF78)"/>
<path id="Combined Shape" d="M65.3485 47.1822L9.01985 40.3749C6.24277 25.6324 9.53671 16.3439 18.9016 12.5093C23.2309 -1.67577 40.0809 -0.521859 44.8571 0.634485C61.1102 4.5701 67.9407 20.086 65.3485 47.1822Z" fill="var(--fill-0, #15152B)"/>
<path id="Mask" d="M27.3916 55.3613V34.5575C18.7161 34.4278 20.4082 19.3943 29.1253 23.9822C30.6856 24.6757 34.673 22.7687 33.286 18.0878C42.6477 25.0224 55.6931 12.8522 56.5169 20.3416C58.1379 35.0814 55.0014 47.1965 46.6844 47.1972C45.7981 47.2309 44.9107 47.1782 44.0347 47.0398V55.3613C41.3198 56.9793 38.6049 57.7884 35.89 57.7884C33.1751 57.7884 30.3423 56.9793 27.3916 55.3613Z" fill="var(--fill-0, #FFCEB1)"/>
<path id="Path 2" d="M44.0346 47.0397V49.8136C38.8337 49.8136 34.7885 47.3287 31.8991 42.3589C35.3664 44.6704 39.4116 46.2307 44.0346 47.0397Z" fill="var(--fill-0, #EDAC8E)"/>
<path id="Combined Shape_2" d="M35.7017 57.4329C38.0737 57.3195 44.0347 56.0921 44.0347 53.4403V51.2005C44.6706 51.2005 46.4912 52.7025 47.4278 53.9743C51.1294 59.0019 47.0235 63.5094 43.6748 63.5094C39.4495 63.5094 36.6493 59.979 35.7131 58.2807C34.777 59.9797 31.9768 63.5094 27.7515 63.5094C24.4028 63.5094 20.2969 59.0019 23.9985 53.9743C24.9351 52.7025 26.7557 51.2005 27.3916 51.2005V53.4403C27.3916 56.0921 33.1959 57.3195 35.7017 57.4329Z" fill="var(--fill-0, white)"/>
</g>
</svg>
