<svg preserveAspectRatio="none" width="100%" height="100%" overflow="visible" style="display: block;" viewBox="0 0 159 159" fill="none" xmlns="http://www.w3.org/2000/svg">
<g id="microsoft-excel-logo-duotone (2) 1" opacity="0.1">
<path id="Vector" opacity="0.2" d="M94.4062 49.6875V109.312C94.4062 110.63 93.8828 111.894 92.9509 112.826C92.0191 113.758 90.7553 114.281 89.4375 114.281H24.8438C23.526 114.281 22.2621 113.758 21.3303 112.826C20.3985 111.894 19.875 110.63 19.875 109.312V49.6875C19.875 48.3697 20.3985 47.1059 21.3303 46.1741C22.2621 45.2422 23.526 44.7188 24.8438 44.7188H89.4375C90.7553 44.7188 92.0191 45.2422 92.9509 46.1741C93.8828 47.1059 94.4062 48.3697 94.4062 49.6875Z" fill="var(--fill-0, #15CF78)"/>
<path id="Vector_2" d="M124.219 14.9062H44.7188C42.0832 14.9063 39.5555 15.9532 37.6919 17.8169C35.8282 19.6805 34.7813 22.2082 34.7812 24.8438V39.75H24.8438C22.2082 39.75 19.6805 40.797 17.8169 42.6606C15.9532 44.5243 14.9063 47.0519 14.9062 49.6875V109.312C14.9063 111.948 15.9532 114.476 17.8169 116.339C19.6805 118.203 22.2082 119.25 24.8438 119.25H34.7812V134.156C34.7812 136.792 35.8282 139.319 37.6919 141.183C39.5555 143.047 42.0832 144.094 44.7188 144.094H124.219C126.854 144.094 129.382 143.047 131.246 141.183C133.109 139.319 134.156 136.792 134.156 134.156V24.8438C134.156 22.2082 133.109 19.6805 131.246 17.8169C129.382 15.9532 126.854 14.9063 124.219 14.9062ZM99.375 64.5938H124.219V94.4062H99.375V64.5938ZM124.219 54.6562H99.375V49.6875C99.375 47.0519 98.328 44.5243 96.4644 42.6606C94.6007 40.797 92.0731 39.75 89.4375 39.75V24.8438H124.219V54.6562ZM44.7188 24.8438H79.5V39.75H44.7188V24.8438ZM24.8438 49.6875H89.4375V99.2694C89.4375 99.3067 89.4375 99.3377 89.4375 99.375C89.4375 99.4123 89.4375 99.4433 89.4375 99.4806V109.312H24.8438V49.6875ZM44.7188 119.25H79.5V134.156H44.7188V119.25ZM89.4375 134.156V119.25C92.0731 119.25 94.6007 118.203 96.4644 116.339C98.328 114.476 99.375 111.948 99.375 109.312V104.344H124.219V134.156H89.4375ZM40.899 91.2263L50.675 79.5L40.899 67.7738C40.0556 66.7607 39.6492 65.4541 39.7692 64.1414C39.8892 62.8287 40.5257 61.6174 41.5387 60.774C42.5518 59.9306 43.8584 59.5242 45.1711 59.6442C46.4838 59.7642 47.6951 60.4007 48.5385 61.4137L57.1406 71.7363L65.7428 61.4137C66.1604 60.9121 66.6727 60.4977 67.2505 60.1941C67.8282 59.8904 68.4602 59.7036 69.1101 59.6442C69.7601 59.5848 70.4155 59.654 71.0387 59.8479C71.6619 60.0417 72.2409 60.3564 72.7425 60.774C73.2441 61.1916 73.6586 61.7039 73.9622 62.2817C74.2658 62.8595 74.4526 63.4914 74.5121 64.1414C74.5715 64.7914 74.5023 65.4467 74.3084 66.0699C74.1145 66.6932 73.7998 67.2721 73.3822 67.7738L63.6062 79.5L73.3822 91.2263C74.2256 92.2393 74.632 93.5459 74.5121 94.8586C74.3921 96.1713 73.7556 97.3826 72.7425 98.226C71.7294 99.0694 70.4229 99.4758 69.1101 99.3558C67.7974 99.2358 66.5862 98.5993 65.7428 97.5862L57.1406 87.2637L48.5385 97.5862C47.6951 98.5993 46.4838 99.2358 45.1711 99.3558C43.8584 99.4758 42.5518 99.0694 41.5387 98.226C40.5257 97.3826 39.8892 96.1713 39.7692 94.8586C39.6492 93.5459 40.0556 92.2393 40.899 91.2263Z" fill="var(--fill-0, #15CF78)"/>
</g>
</svg>
