<svg preserveAspectRatio="xMidYMid meet" width="100%" height="100%" overflow="visible" style="display: block;" viewBox="0 0 142.5 107.788" fill="none" xmlns="http://www.w3.org/2000/svg">
<g id="Group 414">
<g id=" KUROCO">
<path d="M57.4336 0C78.0752 0.152069 93.6561 8.69325 103.345 21.4033C104.958 18.4333 107.162 15.4083 110.159 12.9688C119.384 5.4603 132.606 6.32812 132.606 6.32812C132.597 6.39995 131.013 18.1282 122.961 25.7188C133.228 24.8485 142.461 30.1027 142.5 30.125C142.446 30.2054 135.116 41.0805 123.542 43.7764C120.116 44.5747 116.701 44.5632 113.589 44.1553C114.435 48.2372 114.867 52.4479 114.867 56.7168C114.867 86.3264 93.0646 107.567 57.4336 107.788C21.8026 107.573 0.000193142 86.3326 0 56.7168C0 27.1008 20.7058 0.270607 57.4336 0ZM57.4346 35.834C36.9703 35.8586 17.6274 41.2333 15.5146 56.7178C14.0962 67.1412 21.2463 83.6585 48.835 77.2939C54.4668 75.9964 60.3529 76.0025 65.9785 77.3369C93.672 83.9164 100.773 67.1476 99.3545 56.7119V56.7178C97.248 41.2334 77.8987 35.8648 57.4346 35.834ZM33.4326 51.4238C35.2664 50.6491 37.3853 50.6058 39.2314 51.3682C42.4778 52.7088 43.8535 55.766 43.8535 59.7139V59.8486C43.8534 63.821 42.36 66.7612 39.1074 68.1387C37.2737 68.9133 35.1547 68.9557 33.3086 68.1934C30.0622 66.8528 28.6866 63.7964 28.6865 59.8486V59.7139C28.6865 55.7414 30.18 52.8013 33.4326 51.4238ZM75.6279 51.3682C77.4741 50.6057 79.593 50.6491 81.4268 51.4238C84.6793 52.8014 86.1729 55.7414 86.1729 59.7139V59.8486C86.1727 63.7964 84.7972 66.8528 81.5508 68.1934C79.7047 68.9558 77.5857 68.9133 75.752 68.1387C72.4994 66.7612 71.006 63.821 71.0059 59.8486V59.7139C71.0059 55.7659 72.3815 52.7088 75.6279 51.3682Z" fill="var(--fill-0, #F8FAFF)"/>
<path d="M57.4336 0C78.0752 0.152069 93.6561 8.69325 103.345 21.4033C104.958 18.4333 107.162 15.4083 110.159 12.9688C119.384 5.4603 132.606 6.32812 132.606 6.32812C132.597 6.39995 131.013 18.1282 122.961 25.7188C133.228 24.8485 142.461 30.1027 142.5 30.125C142.446 30.2054 135.116 41.0805 123.542 43.7764C120.116 44.5747 116.701 44.5632 113.589 44.1553C114.435 48.2372 114.867 52.4479 114.867 56.7168C114.867 86.3264 93.0646 107.567 57.4336 107.788C21.8026 107.573 0.000193142 86.3326 0 56.7168C0 27.1008 20.7058 0.270607 57.4336 0ZM57.4346 35.834C36.9703 35.8586 17.6274 41.2333 15.5146 56.7178C14.0962 67.1412 21.2463 83.6585 48.835 77.2939C54.4668 75.9964 60.3529 76.0025 65.9785 77.3369C93.672 83.9164 100.773 67.1476 99.3545 56.7119V56.7178C97.248 41.2334 77.8987 35.8648 57.4346 35.834ZM33.4326 51.4238C35.2664 50.6491 37.3853 50.6058 39.2314 51.3682C42.4778 52.7088 43.8535 55.766 43.8535 59.7139V59.8486C43.8534 63.821 42.36 66.7612 39.1074 68.1387C37.2737 68.9133 35.1547 68.9557 33.3086 68.1934C30.0622 66.8528 28.6866 63.7964 28.6865 59.8486V59.7139C28.6865 55.7414 30.18 52.8013 33.4326 51.4238ZM75.6279 51.3682C77.4741 50.6057 79.593 50.6491 81.4268 51.4238C84.6793 52.8014 86.1729 55.7414 86.1729 59.7139V59.8486C86.1727 63.7964 84.7972 66.8528 81.5508 68.1934C79.7047 68.9558 77.5857 68.9133 75.752 68.1387C72.4994 66.7612 71.006 63.821 71.0059 59.8486V59.7139C71.0059 55.7659 72.3815 52.7088 75.6279 51.3682Z" fill="url(#paint0_linear_0_33)" fill-opacity="0.1"/>
</g>
</g>
<defs>
<linearGradient id="paint0_linear_0_33" x1="0" y1="0" x2="149.515" y2="10.8157" gradientUnits="userSpaceOnUse">
<stop stop-color="#15CF78"/>
<stop offset="0.307692" stop-color="#0099FF"/>
<stop offset="0.649038" stop-color="#EF2BBE"/>
<stop offset="0.980769" stop-color="#FF9900"/>
</linearGradient>
</defs>
</svg>
