<svg preserveAspectRatio="xMidYMid meet" width="100%" height="100%" overflow="visible" style="display: block;" viewBox="0 0 21.8496 16.5283" fill="none" xmlns="http://www.w3.org/2000/svg">
<g id="Group 414">
<g id=" KUROCO">
<path d="M8.80664 0C11.9717 0.0233561 14.361 1.33312 15.8467 3.28223C16.094 2.82706 16.4313 2.36312 16.8906 1.98926C18.2946 0.846686 20.302 0.968802 20.332 0.970703C20.332 0.970703 20.0906 2.77993 18.8486 3.94727C20.4189 3.81202 21.8325 4.61039 21.8496 4.62012C21.8313 4.64731 20.7097 6.30125 18.9434 6.71289C18.4173 6.83549 17.8928 6.83138 17.415 6.76855C17.5452 7.39539 17.6133 8.04169 17.6133 8.69727C17.6132 13.2373 14.2699 16.4943 8.80664 16.5283C3.34327 16.4953 9.80377e-05 13.2383 0 8.69727C0 4.15615 3.17504 0.0414886 8.80664 0ZM8.80566 5.49512C5.66786 5.49891 2.70188 6.32399 2.37793 8.69824C2.16092 10.2965 3.25713 12.828 7.48633 11.8525C8.34987 11.6536 9.25264 11.6548 10.1152 11.8594C14.361 12.8681 15.4495 10.2975 15.2324 8.69727V8.69824C14.9094 6.32408 11.9433 5.49991 8.80566 5.49512ZM5.125 7.88574C5.40617 7.76699 5.73159 7.76102 6.01465 7.87793C6.51208 8.08359 6.72265 8.55208 6.72266 9.15723V9.17773C6.72253 9.78662 6.49373 10.2381 5.99512 10.4492C5.71421 10.5678 5.38926 10.5746 5.10645 10.458C4.60878 10.2525 4.39757 9.78285 4.39746 9.17773V9.15723C4.39747 8.54822 4.62645 8.097 5.125 7.88574ZM11.5957 7.87793C11.8787 7.76116 12.2033 7.76708 12.4844 7.88574C12.9831 8.09697 13.2119 8.54814 13.2119 9.15723V9.17773C13.2118 9.78278 13.0014 10.2525 12.5039 10.458C12.2209 10.5748 11.8953 10.5679 11.6143 10.4492C11.1156 10.2381 10.8868 9.78662 10.8867 9.17773V9.15723C10.8867 8.55199 11.0981 8.08354 11.5957 7.87793Z" fill="var(--fill-0, #F8FAFF)"/>
<path d="M8.80664 0C11.9717 0.0233561 14.361 1.33312 15.8467 3.28223C16.094 2.82706 16.4313 2.36312 16.8906 1.98926C18.2946 0.846686 20.302 0.968802 20.332 0.970703C20.332 0.970703 20.0906 2.77993 18.8486 3.94727C20.4189 3.81202 21.8325 4.61039 21.8496 4.62012C21.8313 4.64731 20.7097 6.30125 18.9434 6.71289C18.4173 6.83549 17.8928 6.83138 17.415 6.76855C17.5452 7.39539 17.6133 8.04169 17.6133 8.69727C17.6132 13.2373 14.2699 16.4943 8.80664 16.5283C3.34327 16.4953 9.80377e-05 13.2383 0 8.69727C0 4.15615 3.17504 0.0414886 8.80664 0ZM8.80566 5.49512C5.66786 5.49891 2.70188 6.32399 2.37793 8.69824C2.16092 10.2965 3.25713 12.828 7.48633 11.8525C8.34987 11.6536 9.25264 11.6548 10.1152 11.8594C14.361 12.8681 15.4495 10.2975 15.2324 8.69727V8.69824C14.9094 6.32408 11.9433 5.49991 8.80566 5.49512ZM5.125 7.88574C5.40617 7.76699 5.73159 7.76102 6.01465 7.87793C6.51208 8.08359 6.72265 8.55208 6.72266 9.15723V9.17773C6.72253 9.78662 6.49373 10.2381 5.99512 10.4492C5.71421 10.5678 5.38926 10.5746 5.10645 10.458C4.60878 10.2525 4.39757 9.78285 4.39746 9.17773V9.15723C4.39747 8.54822 4.62645 8.097 5.125 7.88574ZM11.5957 7.87793C11.8787 7.76116 12.2033 7.76708 12.4844 7.88574C12.9831 8.09697 13.2119 8.54814 13.2119 9.15723V9.17773C13.2118 9.78278 13.0014 10.2525 12.5039 10.458C12.2209 10.5748 11.8953 10.5679 11.6143 10.4492C11.1156 10.2381 10.8868 9.78662 10.8867 9.17773V9.15723C10.8867 8.55199 11.0981 8.08354 11.5957 7.87793Z" fill="url(#paint0_linear_0_13)" fill-opacity="0.1"/>
</g>
</g>
<defs>
<linearGradient id="paint0_linear_0_13" x1="0" y1="0" x2="22.9252" y2="1.65827" gradientUnits="userSpaceOnUse">
<stop stop-color="#15CF78"/>
<stop offset="0.307692" stop-color="#0099FF"/>
<stop offset="0.649038" stop-color="#EF2BBE"/>
<stop offset="0.980769" stop-color="#FF9900"/>
</linearGradient>
</defs>
</svg>
