<svg width="369" height="94" viewBox="0 0 369 94" fill="none" xmlns="http://www.w3.org/2000/svg">
<path d="M93.488 72V30.312H78.872V21.6H118.904V30.312H104.288V72H93.488ZM120.642 72L139.002 21.6H151.386L169.746 72H158.298L145.122 33.768L131.946 72H120.642ZM128.634 60.984L131.514 52.632H157.938L160.746 60.984H128.634ZM197.298 72.864C193.698 72.864 190.434 72.264 187.506 71.064C184.626 69.816 182.346 67.992 180.666 65.592C178.986 63.192 178.074 60.24 177.93 56.736H189.45C189.498 58.128 189.858 59.352 190.53 60.408C191.202 61.464 192.114 62.304 193.266 62.928C194.418 63.504 195.762 63.792 197.298 63.792C198.594 63.792 199.722 63.6 200.682 63.216C201.69 62.784 202.482 62.184 203.058 61.416C203.634 60.6 203.922 59.592 203.922 58.392C203.922 57.144 203.586 56.088 202.914 55.224C202.242 54.312 201.33 53.544 200.178 52.92C199.026 52.248 197.682 51.648 196.146 51.12C194.658 50.544 193.05 49.992 191.322 49.464C187.338 48.168 184.266 46.416 182.106 44.208C179.994 42 178.938 39.048 178.938 35.352C178.938 32.28 179.682 29.664 181.17 27.504C182.706 25.296 184.794 23.616 187.434 22.464C190.074 21.312 193.074 20.736 196.434 20.736C199.89 20.736 202.938 21.336 205.578 22.536C208.218 23.688 210.306 25.392 211.843 27.648C213.379 29.856 214.194 32.496 214.29 35.568H202.698C202.65 34.512 202.338 33.552 201.762 32.688C201.234 31.824 200.49 31.128 199.53 30.6C198.618 30.072 197.538 29.808 196.29 29.808C195.186 29.76 194.178 29.928 193.266 30.312C192.402 30.648 191.682 31.2 191.106 31.968C190.578 32.688 190.314 33.6 190.314 34.704C190.314 35.76 190.578 36.696 191.106 37.512C191.682 38.28 192.45 38.952 193.41 39.528C194.418 40.056 195.57 40.56 196.866 41.04C198.21 41.52 199.674 42 201.258 42.48C203.802 43.344 206.13 44.376 208.242 45.576C210.403 46.728 212.13 48.264 213.426 50.184C214.77 52.056 215.442 54.552 215.442 57.672C215.442 60.408 214.722 62.928 213.282 65.232C211.89 67.536 209.85 69.384 207.162 70.776C204.522 72.168 201.234 72.864 197.298 72.864ZM227.202 72V21.6H238.002V40.68L255.426 21.6H268.674L250.17 41.544L269.322 72H256.074L242.466 49.896L238.002 54.72V72H227.202ZM299.262 72.864C295.47 72.864 292.014 72.12 288.894 70.632C285.822 69.096 283.374 66.816 281.55 63.792C279.774 60.768 278.886 56.952 278.886 52.344V21.6H289.686V52.416C289.686 54.672 290.046 56.592 290.766 58.176C291.534 59.76 292.638 60.96 294.078 61.776C295.566 62.544 297.342 62.928 299.406 62.928C301.518 62.928 303.294 62.544 304.734 61.776C306.222 60.96 307.35 59.76 308.118 58.176C308.886 56.592 309.27 54.672 309.27 52.416V21.6H320.07V52.344C320.07 56.952 319.11 60.768 317.19 63.792C315.318 66.816 312.798 69.096 309.63 70.632C306.51 72.12 303.054 72.864 299.262 72.864ZM332.84 72V21.6H343.64V63.648H365.384V72H332.84Z" fill="black"/>
<rect x="5" y="23" width="48" height="48" rx="5" stroke="#15CF78" stroke-width="10"/>
</svg>
